<svg width="228" height="230" viewBox="0 0 228 230" fill="none" xmlns="http://www.w3.org/2000/svg">
<rect x="167.524" y="3.95329" width="51.1498" height="51.1498" fill="#2C7DFA" stroke="white" stroke-width="6"/>
<rect x="181.669" y="19.9418" width="22.8599" height="22.8599" fill="white"/>
<rect x="3.44861" y="3.95328" width="51.1498" height="51.1498" fill="#2C7DFA" stroke="white" stroke-width="6"/>
<rect x="17.5936" y="18.0983" width="22.8599" height="22.8599" fill="white"/>
<rect x="3.44861" y="175.403" width="51.1498" height="51.1498" fill="#2C7DFA" stroke="white" stroke-width="6"/>
<rect x="17.5936" y="189.548" width="22.8599" height="22.8599" fill="white"/>
<rect x="64.9727" y="10.171" width="7.37417" height="7.37417" fill="white"/>
<rect x="72.3468" y="10.171" width="7.37417" height="7.37417" fill="white"/>
<rect x="72.3468" y="17.5452" width="7.37417" height="7.37417" fill="white"/>
<rect x="72.3468" y="24.9194" width="7.37417" height="7.37417" fill="white"/>
<rect x="79.7209" y="17.5452" width="7.37417" height="7.37417" fill="white"/>
<rect x="79.7209" y="2.79686" width="7.37417" height="7.37417" fill="white"/>
<rect x="87.0952" y="10.171" width="7.37417" height="7.37417" fill="white"/>
<rect x="94.4694" y="10.171" width="7.37417" height="7.37417" fill="white"/>
<rect x="94.4694" y="17.5452" width="7.37417" height="7.37417" fill="white"/>
<rect x="87.0952" y="24.9194" width="7.37417" height="7.37417" fill="white"/>
<rect x="79.7209" y="54.4161" width="7.37417" height="7.37417" fill="white"/>
<rect x="87.0952" y="61.7903" width="7.37417" height="7.37417" fill="white"/>
<rect x="94.4694" y="54.4161" width="7.37417" height="7.37417" fill="white"/>
<rect x="94.4694" y="47.0419" width="7.37417" height="7.37417" fill="white"/>
<rect x="79.7209" y="69.1644" width="7.37417" height="7.37417" fill="white"/>
<rect x="101.844" y="10.171" width="7.37417" height="7.37417" fill="white"/>
<rect x="101.844" y="17.5452" width="7.37417" height="7.37417" fill="white"/>
<rect x="109.218" y="10.171" width="7.37417" height="7.37417" fill="white"/>
<rect x="116.592" y="17.5452" width="7.37417" height="7.37417" fill="white"/>
<rect x="116.592" y="2.79686" width="7.37417" height="7.37417" fill="white"/>
<rect x="123.966" y="2.79686" width="7.37417" height="7.37417" fill="white"/>
<rect x="123.966" y="10.171" width="7.37417" height="7.37417" fill="white"/>
<rect x="131.34" y="10.171" width="7.37417" height="7.37417" fill="white"/>
<rect x="138.714" y="17.5452" width="7.37417" height="7.37417" fill="white"/>
<rect x="131.34" y="24.9194" width="7.37417" height="7.37417" fill="white"/>
<rect x="123.966" y="24.9194" width="7.37417" height="7.37417" fill="white"/>
<rect x="123.966" y="32.2935" width="7.37417" height="7.37417" fill="white"/>
<rect x="116.592" y="32.2935" width="7.37417" height="7.37417" fill="white"/>
<rect x="116.592" y="39.6677" width="7.37417" height="7.37417" fill="white"/>
<rect x="109.218" y="47.0419" width="7.37417" height="7.37417" fill="white"/>
<rect x="109.218" y="54.4161" width="7.37417" height="7.37417" fill="white"/>
<rect x="116.592" y="54.4161" width="7.37417" height="7.37417" fill="white"/>
<rect x="123.966" y="54.4161" width="7.37417" height="7.37417" fill="white"/>
<rect x="123.966" y="61.7903" width="7.37417" height="7.37417" fill="white"/>
<rect x="131.34" y="61.7903" width="7.37417" height="7.37417" fill="white"/>
<rect x="131.34" y="69.1644" width="7.37417" height="7.37417" fill="white"/>
<rect x="138.714" y="69.1644" width="7.37417" height="7.37417" fill="white"/>
<rect x="146.089" y="69.1644" width="7.37417" height="7.37417" fill="white"/>
<rect x="146.089" y="61.7903" width="7.37417" height="7.37417" fill="white"/>
<rect x="153.463" y="54.4161" width="7.37417" height="7.37417" fill="white"/>
<rect x="160.837" y="61.7903" width="7.37417" height="7.37417" fill="white"/>
<rect x="168.211" y="61.7903" width="7.37417" height="7.37417" fill="white"/>
<rect x="175.585" y="69.1644" width="7.37417" height="7.37417" fill="white"/>
<rect x="182.959" y="69.1644" width="7.37417" height="7.37417" fill="white"/>
<rect x="190.334" y="61.7903" width="7.37417" height="7.37417" fill="white"/>
<rect x="197.708" y="61.7903" width="7.37417" height="7.37417" fill="white"/>
<rect x="205.082" y="61.7903" width="7.37417" height="7.37417" fill="white"/>
<rect x="212.456" y="61.7903" width="7.37417" height="7.37417" fill="white"/>
<rect x="212.456" y="69.1644" width="7.37417" height="7.37417" fill="white"/>
<rect x="205.082" y="69.1644" width="7.37417" height="7.37417" fill="white"/>
<rect x="197.708" y="69.1644" width="7.37417" height="7.37417" fill="white"/>
<rect x="153.463" y="47.0419" width="7.37417" height="7.37417" fill="white"/>
<rect x="153.463" y="39.6677" width="7.37417" height="7.37417" fill="white"/>
<rect x="153.463" y="32.2935" width="7.37417" height="7.37417" fill="white"/>
<rect x="146.089" y="32.2935" width="7.37417" height="7.37417" fill="white"/>
<rect x="153.463" y="24.9194" width="7.37417" height="7.37417" fill="white"/>
<rect x="153.463" y="17.5452" width="7.37417" height="7.37417" fill="white"/>
<rect x="153.463" y="10.171" width="7.37417" height="7.37417" fill="white"/>
<rect x="138.714" y="54.4161" width="7.37417" height="7.37417" fill="white"/>
<rect x="138.714" y="47.0419" width="7.37417" height="7.37417" fill="white"/>
<rect x="131.34" y="76.5385" width="7.37417" height="7.37417" fill="white"/>
<rect x="123.966" y="69.1644" width="7.37417" height="7.37417" fill="white"/>
<rect x="123.966" y="76.5385" width="7.37417" height="7.37417" fill="white"/>
<rect x="123.966" y="83.9128" width="7.37417" height="7.37417" fill="white"/>
<rect x="116.592" y="83.9128" width="7.37417" height="7.37417" fill="white"/>
<rect x="109.218" y="83.9128" width="7.37417" height="7.37417" fill="white"/>
<rect x="101.844" y="83.9128" width="7.37417" height="7.37417" fill="white"/>
<rect x="94.4694" y="83.9128" width="7.37417" height="7.37417" fill="white"/>
<rect x="94.4694" y="76.5385" width="7.37417" height="7.37417" fill="white"/>
<rect x="87.0952" y="83.9128" width="7.37417" height="7.37417" fill="white"/>
<rect x="94.4694" y="91.287" width="7.37417" height="7.37417" fill="white"/>
<rect x="87.0952" y="91.287" width="7.37417" height="7.37417" fill="white"/>
<rect x="94.4694" y="98.6611" width="7.37417" height="7.37417" fill="white"/>
<rect x="123.966" y="47.0419" width="7.37417" height="7.37417" fill="white"/>
<rect x="138.714" y="2.79686" width="7.37417" height="7.37417" fill="white"/>
<rect x="72.3468" y="32.2935" width="7.37417" height="7.37417" fill="white"/>
<rect x="72.3468" y="39.6677" width="7.37417" height="7.37417" fill="white"/>
<rect x="72.3468" y="47.0419" width="7.37417" height="7.37417" fill="white"/>
<rect x="64.9727" y="54.4161" width="7.37417" height="7.37417" fill="white"/>
<rect x="64.9727" y="61.7903" width="7.37417" height="7.37417" fill="white"/>
<rect x="0.448608" y="65.4773" width="7.37417" height="7.37417" fill="white"/>
<rect x="0.448608" y="72.8515" width="7.37417" height="7.37417" fill="white"/>
<rect x="0.448608" y="72.8515" width="7.37417" height="7.37417" fill="white"/>
<rect x="7.82275" y="80.2257" width="7.37417" height="7.37417" fill="white"/>
<rect x="0.448608" y="87.5999" width="7.37417" height="7.37417" fill="white"/>
<rect x="7.82275" y="94.974" width="7.37417" height="7.37417" fill="white"/>
<rect x="15.1969" y="102.348" width="7.37417" height="7.37417" fill="white"/>
<rect x="7.82275" y="109.722" width="7.37417" height="7.37417" fill="white"/>
<rect x="0.448608" y="109.722" width="7.37417" height="7.37417" fill="white"/>
<rect x="15.1969" y="80.2257" width="7.37417" height="7.37417" fill="white"/>
<rect x="15.1969" y="87.5999" width="7.37417" height="7.37417" fill="white"/>
<rect x="15.1969" y="72.8515" width="7.37417" height="7.37417" fill="white"/>
<rect x="22.571" y="80.2257" width="7.37417" height="7.37417" fill="white"/>
<rect x="29.9454" y="80.2257" width="7.37417" height="7.37417" fill="white"/>
<rect x="37.3196" y="72.8515" width="7.37417" height="7.37417" fill="white"/>
<rect x="44.6937" y="80.2257" width="7.37417" height="7.37417" fill="white"/>
<rect x="37.3196" y="87.5999" width="7.37417" height="7.37417" fill="white"/>
<rect x="37.3196" y="94.974" width="7.37417" height="7.37417" fill="white"/>
<rect x="44.6937" y="94.974" width="7.37417" height="7.37417" fill="white"/>
<rect x="52.0679" y="87.5999" width="7.37417" height="7.37417" fill="white"/>
<rect x="59.442" y="87.5999" width="7.37417" height="7.37417" fill="white"/>
<rect x="66.8162" y="87.5999" width="7.37417" height="7.37417" fill="white"/>
<rect x="74.1903" y="87.5999" width="7.37417" height="7.37417" fill="white"/>
<rect x="74.1903" y="94.974" width="7.37417" height="7.37417" fill="white"/>
<rect x="74.1903" y="102.348" width="7.37417" height="7.37417" fill="white"/>
<rect x="66.8162" y="102.348" width="7.37417" height="7.37417" fill="white"/>
<rect x="52.0679" y="102.348" width="7.37417" height="7.37417" fill="white"/>
<rect x="59.442" y="109.722" width="7.37417" height="7.37417" fill="white"/>
<rect x="59.442" y="117.097" width="7.37417" height="7.37417" fill="white"/>
<rect x="66.8162" y="117.097" width="7.37417" height="7.37417" fill="white"/>
<rect x="66.8162" y="109.722" width="7.37417" height="7.37417" fill="white"/>
<rect x="74.1903" y="117.097" width="7.37417" height="7.37417" fill="white"/>
<rect x="81.5646" y="124.471" width="7.37417" height="7.37417" fill="white"/>
<rect x="81.5646" y="131.845" width="7.37417" height="7.37417" fill="white"/>
<rect x="94.4694" y="131.845" width="7.37417" height="7.37417" fill="white"/>
<rect x="101.844" y="131.845" width="7.37417" height="7.37417" fill="white"/>
<rect x="109.218" y="131.845" width="7.37417" height="7.37417" fill="white"/>
<rect x="116.592" y="117.097" width="7.37417" height="7.37417" fill="white"/>
<rect x="123.966" y="124.471" width="7.37417" height="7.37417" fill="white"/>
<rect x="131.34" y="124.471" width="7.37417" height="7.37417" fill="white"/>
<rect x="131.34" y="131.845" width="7.37417" height="7.37417" fill="white"/>
<rect x="138.714" y="131.845" width="7.37417" height="7.37417" fill="white"/>
<rect x="146.089" y="131.845" width="7.37417" height="7.37417" fill="white"/>
<rect x="146.089" y="131.845" width="7.37417" height="7.37417" fill="white"/>
<rect x="146.089" y="139.219" width="7.37417" height="7.37417" fill="white"/>
<rect x="138.714" y="146.593" width="7.37417" height="7.37417" fill="white"/>
<rect x="131.34" y="153.967" width="7.37417" height="7.37417" fill="white"/>
<rect x="131.34" y="161.342" width="7.37417" height="7.37417" fill="white"/>
<rect x="138.714" y="161.342" width="7.37417" height="7.37417" fill="white"/>
<rect x="138.714" y="168.716" width="7.37417" height="7.37417" fill="white"/>
<rect x="146.089" y="168.716" width="7.37417" height="7.37417" fill="white"/>
<rect x="153.463" y="168.716" width="7.37417" height="7.37417" fill="white"/>
<rect x="153.463" y="161.342" width="7.37417" height="7.37417" fill="white"/>
<rect x="153.463" y="153.967" width="7.37417" height="7.37417" fill="white"/>
<rect x="153.463" y="146.593" width="7.37417" height="7.37417" fill="white"/>
<rect x="160.837" y="146.593" width="7.37417" height="7.37417" fill="white"/>
<rect x="160.837" y="153.967" width="7.37417" height="7.37417" fill="white"/>
<rect x="168.211" y="146.593" width="7.37417" height="7.37417" fill="white"/>
<rect x="168.211" y="153.967" width="7.37417" height="7.37417" fill="white"/>
<rect x="168.211" y="168.716" width="7.37417" height="7.37417" fill="white"/>
<rect x="168.211" y="190.838" width="7.37417" height="7.37417" fill="white"/>
<rect x="182.959" y="190.838" width="7.37417" height="7.37417" fill="white"/>
<rect x="182.959" y="205.587" width="7.37417" height="7.37417" fill="white"/>
<rect x="168.211" y="205.587" width="7.37417" height="7.37417" fill="white"/>
<rect x="175.585" y="153.967" width="7.37417" height="7.37417" fill="white"/>
<rect x="175.585" y="146.593" width="7.37417" height="7.37417" fill="white"/>
<rect x="182.959" y="146.593" width="7.37417" height="7.37417" fill="white"/>
<rect x="190.334" y="139.219" width="7.37417" height="7.37417" fill="white"/>
<rect x="190.334" y="161.342" width="7.37417" height="7.37417" fill="white"/>
<rect x="190.334" y="168.716" width="7.37417" height="7.37417" fill="white"/>
<rect x="190.334" y="168.716" width="7.37417" height="7.37417" fill="white"/>
<rect x="197.708" y="168.716" width="7.37417" height="7.37417" fill="white"/>
<rect x="219.83" y="176.09" width="7.37417" height="7.37417" fill="white"/>
<rect x="197.708" y="153.967" width="7.37417" height="7.37417" fill="white"/>
<rect x="205.082" y="153.967" width="7.37417" height="7.37417" fill="white"/>
<rect x="212.456" y="153.967" width="7.37417" height="7.37417" fill="white"/>
<rect x="217.987" y="153.967" width="7.37417" height="7.37417" fill="white"/>
<rect x="190.334" y="124.471" width="7.37417" height="7.37417" fill="white"/>
<rect x="197.708" y="124.471" width="7.37417" height="7.37417" fill="white"/>
<rect x="197.708" y="131.845" width="7.37417" height="7.37417" fill="white"/>
<rect x="205.082" y="131.845" width="7.37417" height="7.37417" fill="white"/>
<rect x="212.456" y="131.845" width="7.37417" height="7.37417" fill="white"/>
<rect x="217.987" y="131.845" width="7.37417" height="7.37417" fill="white"/>
<rect x="217.987" y="139.219" width="7.37417" height="7.37417" fill="white"/>
<rect x="182.959" y="131.845" width="7.37417" height="7.37417" fill="white"/>
<rect x="175.585" y="131.845" width="7.37417" height="7.37417" fill="white"/>
<rect x="175.585" y="124.471" width="7.37417" height="7.37417" fill="white"/>
<rect x="175.585" y="117.097" width="7.37417" height="7.37417" fill="white"/>
<rect x="182.959" y="117.097" width="7.37417" height="7.37417" fill="white"/>
<rect x="197.708" y="117.097" width="7.37417" height="7.37417" fill="white"/>
<rect x="197.708" y="109.722" width="7.37417" height="7.37417" fill="white"/>
<rect x="205.082" y="102.348" width="7.37417" height="7.37417" fill="white"/>
<rect x="212.456" y="102.348" width="7.37417" height="7.37417" fill="white"/>
<rect x="212.456" y="94.974" width="7.37417" height="7.37417" fill="white"/>
<rect x="190.334" y="109.722" width="7.37417" height="7.37417" fill="white"/>
<rect x="182.959" y="102.348" width="7.37417" height="7.37417" fill="white"/>
<rect x="190.334" y="85.7562" width="7.37417" height="7.37417" fill="white"/>
<rect x="175.585" y="94.974" width="7.37417" height="7.37417" fill="white"/>
<rect x="175.585" y="87.5999" width="7.37417" height="7.37417" fill="white"/>
<rect x="175.585" y="87.5999" width="7.37417" height="7.37417" fill="white"/>
<rect x="175.585" y="85.7562" width="7.37417" height="7.37417" fill="white"/>
<rect x="175.585" y="109.722" width="7.37417" height="7.37417" fill="white"/>
<rect x="168.211" y="102.348" width="7.37417" height="7.37417" fill="white"/>
<rect x="160.837" y="102.348" width="7.37417" height="7.37417" fill="white"/>
<rect x="160.837" y="109.722" width="7.37417" height="7.37417" fill="white"/>
<rect x="153.463" y="102.348" width="7.37417" height="7.37417" fill="white"/>
<rect x="146.089" y="102.348" width="7.37417" height="7.37417" fill="white"/>
<rect x="146.089" y="94.974" width="7.37417" height="7.37417" fill="white"/>
<rect x="153.463" y="87.5999" width="7.37417" height="7.37417" fill="white"/>
<rect x="153.463" y="87.5999" width="7.37417" height="7.37417" fill="white"/>
<rect x="153.463" y="85.7562" width="7.37417" height="7.37417" fill="white"/>
<rect x="153.463" y="94.974" width="7.37417" height="7.37417" fill="white"/>
<rect x="168.211" y="94.974" width="7.37417" height="7.37417" fill="white"/>
<rect x="168.211" y="87.5999" width="7.37417" height="7.37417" fill="white"/>
<rect x="168.211" y="85.7562" width="7.37417" height="7.37417" fill="white"/>
<rect x="168.211" y="131.845" width="7.37417" height="7.37417" fill="white"/>
<rect x="182.959" y="153.967" width="7.37417" height="7.37417" fill="white"/>
<rect x="182.959" y="161.342" width="7.37417" height="7.37417" fill="white"/>
<rect x="182.959" y="168.716" width="7.37417" height="7.37417" fill="white"/>
<rect x="182.959" y="176.09" width="7.37417" height="7.37417" fill="white"/>
<rect x="182.959" y="183.464" width="7.37417" height="7.37417" fill="white"/>
<rect x="190.334" y="183.464" width="7.37417" height="7.37417" fill="white"/>
<rect x="190.334" y="190.838" width="7.37417" height="7.37417" fill="white"/>
<rect x="197.708" y="190.838" width="7.37417" height="7.37417" fill="white"/>
<rect x="205.082" y="190.838" width="7.37417" height="7.37417" fill="white"/>
<rect x="212.456" y="190.838" width="7.37417" height="7.37417" fill="white"/>
<rect x="190.334" y="198.212" width="7.37417" height="7.37417" fill="white"/>
<rect x="197.708" y="198.212" width="7.37417" height="7.37417" fill="white"/>
<rect x="205.082" y="198.212" width="7.37417" height="7.37417" fill="white"/>
<rect x="212.456" y="198.212" width="7.37417" height="7.37417" fill="white"/>
<rect x="205.082" y="205.587" width="7.37417" height="7.37417" fill="white"/>
<rect x="205.082" y="212.961" width="7.37417" height="7.37417" fill="white"/>
<rect x="190.334" y="205.587" width="7.37417" height="7.37417" fill="white"/>
<rect x="197.708" y="205.587" width="7.37417" height="7.37417" fill="white"/>
<rect x="219.83" y="205.587" width="7.37417" height="7.37417" fill="white"/>
<rect x="175.585" y="183.464" width="7.37417" height="7.37417" fill="white"/>
<rect x="168.211" y="183.464" width="7.37417" height="7.37417" fill="white"/>
<rect x="175.585" y="190.838" width="7.37417" height="7.37417" fill="white"/>
<rect x="175.585" y="198.212" width="7.37417" height="7.37417" fill="white"/>
<rect x="175.585" y="205.587" width="7.37417" height="7.37417" fill="white"/>
<rect x="160.837" y="183.464" width="7.37417" height="7.37417" fill="white"/>
<rect x="153.463" y="176.09" width="7.37417" height="7.37417" fill="white"/>
<rect x="153.463" y="183.464" width="7.37417" height="7.37417" fill="white"/>
<rect x="146.089" y="176.09" width="7.37417" height="7.37417" fill="white"/>
<rect x="146.089" y="183.464" width="7.37417" height="7.37417" fill="white"/>
<rect x="138.714" y="190.838" width="7.37417" height="7.37417" fill="white"/>
<rect x="131.34" y="190.838" width="7.37417" height="7.37417" fill="white"/>
<rect x="123.966" y="183.464" width="7.37417" height="7.37417" fill="white"/>
<rect x="123.966" y="176.09" width="7.37417" height="7.37417" fill="white"/>
<rect x="116.592" y="176.09" width="7.37417" height="7.37417" fill="white"/>
<rect x="112.905" y="176.09" width="7.37417" height="7.37417" fill="white"/>
<rect x="107.374" y="176.09" width="7.37417" height="7.37417" fill="white"/>
<rect x="107.374" y="183.464" width="7.37417" height="7.37417" fill="white"/>
<rect x="107.374" y="190.838" width="7.37417" height="7.37417" fill="white"/>
<rect x="100" y="190.838" width="7.37417" height="7.37417" fill="white"/>
<rect x="100" y="183.464" width="7.37417" height="7.37417" fill="white"/>
<rect x="92.6259" y="183.464" width="7.37417" height="7.37417" fill="white"/>
<rect x="85.2517" y="190.838" width="7.37417" height="7.37417" fill="white"/>
<rect x="77.8776" y="190.838" width="7.37417" height="7.37417" fill="white"/>
<rect x="70.5032" y="190.838" width="7.37417" height="7.37417" fill="white"/>
<rect x="70.5032" y="198.212" width="7.37417" height="7.37417" fill="white"/>
<rect x="77.8776" y="198.212" width="7.37417" height="7.37417" fill="white"/>
<rect x="85.2517" y="176.09" width="7.37417" height="7.37417" fill="white"/>
<rect x="85.2517" y="176.09" width="7.37417" height="7.37417" fill="white"/>
<rect x="92.6259" y="168.716" width="7.37417" height="7.37417" fill="white"/>
<rect x="77.8776" y="176.09" width="7.37417" height="7.37417" fill="white"/>
<rect x="131.34" y="198.212" width="7.37417" height="7.37417" fill="white"/>
<rect x="123.966" y="198.212" width="7.37417" height="7.37417" fill="white"/>
<rect x="122.122" y="198.212" width="7.37417" height="7.37417" fill="white"/>
<rect x="114.748" y="198.212" width="7.37417" height="7.37417" fill="white"/>
<rect x="160.837" y="190.838" width="7.37417" height="7.37417" fill="white"/>
<rect x="160.837" y="198.212" width="7.37417" height="7.37417" fill="white"/>
<rect x="160.837" y="205.587" width="7.37417" height="7.37417" fill="white"/>
<rect x="160.837" y="212.961" width="7.37417" height="7.37417" fill="white"/>
<rect x="160.837" y="220.335" width="7.37417" height="7.37417" fill="white"/>
<rect x="160.837" y="222.179" width="7.37417" height="7.37417" fill="white"/>
<rect x="168.211" y="220.335" width="7.37417" height="7.37417" fill="white"/>
<rect x="168.211" y="222.179" width="7.37417" height="7.37417" fill="white"/>
<rect x="175.585" y="220.335" width="7.37417" height="7.37417" fill="white"/>
<rect x="175.585" y="222.179" width="7.37417" height="7.37417" fill="white"/>
<rect x="182.959" y="220.335" width="7.37417" height="7.37417" fill="white"/>
<rect x="182.959" y="222.179" width="7.37417" height="7.37417" fill="white"/>
<rect x="190.334" y="220.335" width="7.37417" height="7.37417" fill="white"/>
<rect x="190.334" y="222.179" width="7.37417" height="7.37417" fill="white"/>
<rect x="197.708" y="220.335" width="7.37417" height="7.37417" fill="white"/>
<rect x="197.708" y="222.179" width="7.37417" height="7.37417" fill="white"/>
<rect x="205.082" y="220.335" width="7.37417" height="7.37417" fill="white"/>
<rect x="205.082" y="222.179" width="7.37417" height="7.37417" fill="white"/>
<rect x="175.585" y="212.961" width="7.37417" height="7.37417" fill="white"/>
<rect x="190.334" y="212.961" width="7.37417" height="7.37417" fill="white"/>
<rect x="197.708" y="212.961" width="7.37417" height="7.37417" fill="white"/>
<rect x="146.089" y="198.212" width="7.37417" height="7.37417" fill="white"/>
<rect x="146.089" y="205.587" width="7.37417" height="7.37417" fill="white"/>
<rect x="146.089" y="212.961" width="7.37417" height="7.37417" fill="white"/>
<rect x="146.089" y="220.335" width="7.37417" height="7.37417" fill="white"/>
<rect x="146.089" y="222.179" width="7.37417" height="7.37417" fill="white"/>
<rect x="138.714" y="222.179" width="7.37417" height="7.37417" fill="white"/>
<rect x="131.34" y="222.179" width="7.37417" height="7.37417" fill="white"/>
<rect x="153.463" y="131.845" width="7.37417" height="7.37417" fill="white"/>
<rect x="138.714" y="124.471" width="7.37417" height="7.37417" fill="white"/>
<rect x="146.089" y="124.471" width="7.37417" height="7.37417" fill="white"/>
<rect x="146.089" y="117.097" width="7.37417" height="7.37417" fill="white"/>
<rect x="138.714" y="117.097" width="7.37417" height="7.37417" fill="white"/>
<rect x="138.714" y="109.722" width="7.37417" height="7.37417" fill="white"/>
<rect x="131.34" y="109.722" width="7.37417" height="7.37417" fill="white"/>
<rect x="123.966" y="102.348" width="7.37417" height="7.37417" fill="white"/>
<rect x="123.966" y="98.6611" width="7.37417" height="7.37417" fill="white"/>
<rect x="116.592" y="98.6611" width="7.37417" height="7.37417" fill="white"/>
<rect x="116.592" y="139.219" width="7.37417" height="7.37417" fill="white"/>
<rect x="81.5646" y="139.219" width="7.37417" height="7.37417" fill="white"/>
<rect x="81.5646" y="153.967" width="7.37417" height="7.37417" fill="white"/>
<rect x="88.9387" y="146.593" width="7.37417" height="7.37417" fill="white"/>
<rect x="96.3129" y="146.593" width="7.37417" height="7.37417" fill="white"/>
<rect x="103.687" y="153.967" width="7.37417" height="7.37417" fill="white"/>
<rect x="103.687" y="161.342" width="7.37417" height="7.37417" fill="white"/>
<rect x="66.8162" y="222.179" width="7.37417" height="7.37417" fill="white"/>
<rect x="74.1903" y="222.179" width="7.37417" height="7.37417" fill="white"/>
<rect x="85.2517" y="222.179" width="7.37417" height="7.37417" fill="white"/>
<rect x="100" y="222.179" width="7.37417" height="7.37417" fill="white"/>
<rect x="107.374" y="222.179" width="7.37417" height="7.37417" fill="white"/>
<rect x="114.748" y="214.804" width="7.37417" height="7.37417" fill="white"/>
<rect x="114.748" y="207.43" width="7.37417" height="7.37417" fill="white"/>
<rect x="114.748" y="205.587" width="7.37417" height="7.37417" fill="white"/>
<rect x="92.6259" y="214.804" width="7.37417" height="7.37417" fill="white"/>
<rect x="111.061" y="153.967" width="7.37417" height="7.37417" fill="white"/>
<rect x="116.592" y="153.967" width="7.37417" height="7.37417" fill="white"/>
<rect x="74.1903" y="146.593" width="7.37417" height="7.37417" fill="white"/>
<rect x="66.8162" y="146.593" width="7.37417" height="7.37417" fill="white"/>
<rect x="66.8162" y="153.967" width="7.37417" height="7.37417" fill="white"/>
<rect x="66.8162" y="161.342" width="7.37417" height="7.37417" fill="white"/>
<rect x="66.8162" y="161.342" width="7.37417" height="7.37417" fill="white"/>
<rect x="59.442" y="161.342" width="7.37417" height="7.37417" fill="white"/>
<rect x="52.0679" y="153.967" width="7.37417" height="7.37417" fill="white"/>
<rect x="44.6937" y="153.967" width="7.37417" height="7.37417" fill="white"/>
<rect x="37.3196" y="146.593" width="7.37417" height="7.37417" fill="white"/>
<rect x="37.3196" y="139.219" width="7.37417" height="7.37417" fill="white"/>
<rect x="29.9454" y="139.219" width="7.37417" height="7.37417" fill="white"/>
<rect x="22.571" y="139.219" width="7.37417" height="7.37417" fill="white"/>
<rect x="22.571" y="146.593" width="7.37417" height="7.37417" fill="white"/>
<rect x="15.1969" y="146.593" width="7.37417" height="7.37417" fill="white"/>
<rect x="7.82275" y="139.219" width="7.37417" height="7.37417" fill="white"/>
<rect x="0.448608" y="128.158" width="7.37417" height="7.37417" fill="white"/>
<rect x="0.448608" y="135.532" width="7.37417" height="7.37417" fill="white"/>
<rect x="0.448608" y="142.906" width="7.37417" height="7.37417" fill="white"/>
<rect x="0.448608" y="150.28" width="7.37417" height="7.37417" fill="white"/>
<rect x="0.448608" y="157.655" width="7.37417" height="7.37417" fill="white"/>
<rect x="44.6937" y="139.219" width="7.37417" height="7.37417" fill="white"/>
<rect x="29.9454" y="153.967" width="7.37417" height="7.37417" fill="white"/>
<rect x="74.1903" y="161.342" width="7.37417" height="7.37417" fill="white"/>
<rect x="66.8162" y="139.219" width="7.37417" height="7.37417" fill="white"/>
<rect x="66.8162" y="131.845" width="7.37417" height="7.37417" fill="white"/>
<rect x="59.442" y="131.845" width="7.37417" height="7.37417" fill="white"/>
<rect x="59.442" y="139.219" width="7.37417" height="7.37417" fill="white"/>
<rect x="52.0679" y="131.845" width="7.37417" height="7.37417" fill="white"/>
<rect x="44.6937" y="124.471" width="7.37417" height="7.37417" fill="white"/>
<rect x="37.3196" y="124.471" width="7.37417" height="7.37417" fill="white"/>
<rect x="29.9454" y="124.471" width="7.37417" height="7.37417" fill="white"/>
<rect x="44.6937" y="109.722" width="7.37417" height="7.37417" fill="white"/>
<rect x="29.9454" y="102.348" width="7.37417" height="7.37417" fill="white"/>
<rect x="29.9454" y="109.722" width="7.37417" height="7.37417" fill="white"/>
<rect x="59.442" y="94.974" width="7.37417" height="7.37417" fill="white"/>
<rect x="52.0679" y="80.2257" width="7.37417" height="7.37417" fill="white"/>
<rect x="59.442" y="80.2257" width="7.37417" height="7.37417" fill="white"/>
<rect x="66.8162" y="80.2257" width="7.37417" height="7.37417" fill="white"/>
<rect x="44.6937" y="65.4773" width="7.37417" height="7.37417" fill="white"/>
<rect x="64.9727" y="17.5452" width="7.37417" height="7.37417" fill="white"/>
<rect x="64.9727" y="24.9194" width="7.37417" height="7.37417" fill="white"/>
<rect x="64.9727" y="32.2935" width="7.37417" height="7.37417" fill="white"/>
</svg>
